<?xml version="1.0" encoding="UTF-8"?>
<svg version="1.1" xmlns="http://www.w3.org/2000/svg" width="500" height="200">
<rect x="0" y="0" width="75%" height="100%" fill="black"/>
<path d="M0 0 C0.66 0 1.32 0 2 0 C6.69138798 8.73688747 11.37475249 17.47803049 16.04998779 26.22357178 C16.92993273 27.86898119 17.81087074 29.51385941 18.69189453 31.15869141 C20.11150873 33.8118077 21.52561972 36.46776215 22.9375 39.125 C23.35563965 39.90464111 23.7737793 40.68428223 24.20458984 41.48754883 C27 46.76997228 27 46.76997228 27 49 C27.721875 48.278125 28.44375 47.55625 29.1875 46.8125 C31.79166667 44.20833333 34.39583333 41.60416667 37 39 C40.63 40.65 44.26 42.3 48 44 C48 44.99 48 45.98 48 47 C45.525 47.495 45.525 47.495 43 48 C43.33 48.66 43.66 49.32 44 50 C46.84355994 66.70408648 46.84355994 66.70408648 43.52734375 72.6328125 C41.44411288 74.3588034 39.35385916 75.67166438 37 77 C32.04232611 80.91552672 32.04232611 80.91552672 29.34375 86.44140625 C28.99311966 89.19180676 28.99311966 89.19180676 29 93 C26.03 92.01 23.06 91.02 20 90 C19.34 91.32 18.68 92.64 18 94 C16.81736003 95.29410718 15.58293368 96.54196483 14.3125 97.75 C9.59566714 102.34763492 5.31966708 107.24657404 1.078125 112.28125 C0.45421875 113.0134375 -0.1696875 113.745625 -0.8125 114.5 C-1.37582031 115.1703125 -1.93914063 115.840625 -2.51953125 116.53125 C-4 118 -4 118 -6 118 C-4.3383196 113.87582937 -1.37661982 110.93445961 1.625 107.75 C2.140625 107.19570312 2.65625 106.64140625 3.1875 106.0703125 C4.45425035 104.7097288 5.72657815 103.35434163 7 102 C1.97738915 104.07301155 -1.47885837 108.08484105 -5.34375 111.78515625 C-7.75374388 113.79466585 -8.95021422 114.64754834 -12 115 C-4.73811588 105.92264485 4.20274207 98.5405068 13 91 C5.08 90.67 -2.84 90.34 -11 90 C-10 87 -10 87 -7.98828125 85.7109375 C-7.10527344 85.27007812 -6.22226562 84.82921875 -5.3125 84.375 C-0.47269999 81.85320947 4.11663888 79.09585513 8.6875 76.125 C9.31164795 75.71942871 9.9357959 75.31385742 10.57885742 74.89599609 C12.05453973 73.93367536 13.52757004 72.96728975 15 72 C14.34515625 71.07960938 13.6903125 70.15921875 13.015625 69.2109375 C10.81898004 65.71163099 10.61571403 64.03500266 11 60 C9.35 59.67 7.7 59.34 6 59 C5.67 60.32 5.34 61.64 5 63 C1.7 63 -1.6 63 -5 63 C-5 64.98 -5 66.96 -5 69 C-6.99954746 69.04254356 -9.00041636 69.04080783 -11 69 C-12 68 -12 68 -12.0625 64.9375 C-12.041875 63.968125 -12.02125 62.99875 -12 62 C-10.02 62 -8.04 62 -6 62 C-6 58.7 -6 55.4 -6 52 C-3.36 51.67 -0.72 51.34 2 51 C0.515 46.545 0.515 46.545 -1 42 C0.65 42 2.3 42 4 42 C4 38.04 4 34.08 4 30 C0.7 30 -2.6 30 -6 30 C-7.53630085 26.40223196 -9.05133278 22.79588889 -10.5625 19.1875 C-11.21895508 17.65125977 -11.21895508 17.65125977 -11.88867188 16.08398438 C-12.29794922 15.10107422 -12.70722656 14.11816406 -13.12890625 13.10546875 C-13.51119385 12.19949951 -13.89348145 11.29353027 -14.28735352 10.36010742 C-15 8 -15 8 -14 5 C-9.71 8.3 -5.42 11.6 -1 15 C-0.67 10.05 -0.34 5.1 0 0 Z M4 25 C4 26.32 4 27.64 4 29 C5.32 29 6.64 29 8 29 C8 27.68 8 26.36 8 25 C6.68 25 5.36 25 4 25 Z M4 42 C4 45.3 4 48.6 4 52 C7.3 52 10.6 52 14 52 C14 48.7 14 45.4 14 42 C10.7 42 7.4 42 4 42 Z M4 55 C5 57 5 57 5 57 Z " fill="#DADDE0" transform="translate(26,2)"/>
<path d="M0 0 C0 4 0 4 -2.58984375 6.69921875 C-3.70209069 7.69937362 -4.81816216 8.69528741 -5.9375 9.6875 C-11.24065319 14.52474535 -11.24065319 14.52474535 -13.25 21.25 C-13.1675 22.4875 -13.085 23.725 -13 25 C-15.97 24.01 -18.94 23.02 -22 22 C-22.66 23.32 -23.32 24.64 -24 26 C-25.18263997 27.29410718 -26.41706632 28.54196483 -27.6875 29.75 C-32.40433286 34.34763492 -36.68033292 39.24657404 -40.921875 44.28125 C-41.54578125 45.0134375 -42.1696875 45.745625 -42.8125 46.5 C-43.37582031 47.1703125 -43.93914063 47.840625 -44.51953125 48.53125 C-46 50 -46 50 -48 50 C-46.3383196 45.87582937 -43.37661982 42.93445961 -40.375 39.75 C-39.6015625 38.91855469 -39.6015625 38.91855469 -38.8125 38.0703125 C-37.54574965 36.7097288 -36.27342185 35.35434163 -35 34 C-40.02261085 36.07301155 -43.47885837 40.08484105 -47.34375 43.78515625 C-49.75374388 45.79466585 -50.95021422 46.64754834 -54 47 C-46.73811588 37.92264485 -37.79725793 30.5405068 -29 23 C-36.92 22.67 -44.84 22.34 -53 22 C-51.73682877 18.21048632 -50.73799812 18.07162044 -47.25 16.3125 C-41.53623343 13.34343543 -36.16359083 10.01365085 -30.75 6.5390625 C-28 5 -28 5 -25 5 C-25 4.34 -25 3.68 -25 3 C-16.51311539 0.70032804 -8.79393628 -0.42781312 0 0 Z " fill="#DDDFE0" transform="translate(68,70)"/>
<path d="M0 0 C2.27807617 0.07006836 2.27807617 0.07006836 5 1 C6.4597287 3.33144967 7.50475928 5.36881791 8.55078125 7.87890625 C8.85445114 8.5655687 9.15812103 9.25223114 9.47099304 9.95970154 C10.43618554 12.15326136 11.3744448 14.35721794 12.3125 16.5625 C12.96245096 18.05219343 13.61412378 19.54113688 14.26757812 21.02929688 C15.86857444 24.67680181 17.43263952 28.33716975 19 32 C19.33 21.44 19.66 10.88 20 0 C25 0 25 0 26.72583008 1.4777832 C27.48996216 2.50391724 27.48996216 2.50391724 28.26953125 3.55078125 C28.84896484 4.31326172 29.42839844 5.07574219 30.02539062 5.86132812 C30.61513672 6.67021484 31.20488281 7.47910156 31.8125 8.3125 C32.39064453 9.07884766 32.96878906 9.84519531 33.56445312 10.63476562 C38.11905119 16.69917521 42.53970249 22.86709093 47 29 C47.33 19.43 47.66 9.86 48 0 C48.99 0 49.98 0 51 0 C51 12.21 51 24.42 51 37 C47 37 47 37 45.60302734 35.73754883 C45.1848877 35.14997803 44.76674805 34.56240723 44.3359375 33.95703125 C43.85801758 33.30089844 43.38009766 32.64476562 42.88769531 31.96875 C42.13891113 30.90140625 42.13891113 30.90140625 41.375 29.8125 C40.31594488 28.3496514 39.25603466 26.88742152 38.1953125 25.42578125 C37.66454102 24.68666504 37.13376953 23.94754883 36.58691406 23.18603516 C34.20633009 19.90668917 31.73329355 16.70183333 29.25 13.5 C27.8475 11.685 26.445 9.87 25 8 C24.67 17.57 24.34 27.14 24 37 C21.36 37 18.72 37 16 37 C13.525 31.555 13.525 31.555 11 26 C6.05 25.67 1.1 25.34 -4 25 C-3.67 24.01 -3.34 23.02 -3 22 C0.96 21.67 4.92 21.34 9 21 C8.566875 20.08476563 8.13375 19.16953125 7.6875 18.2265625 C7.130625 17.03804687 6.57375 15.84953125 6 14.625 C5.443125 13.44164063 4.88625 12.25828125 4.3125 11.0390625 C3 8 3 8 3 6 C2.34 6 1.68 6 1 6 C0.83709473 6.52859619 0.67418945 7.05719238 0.50634766 7.60180664 C-1.45894437 13.75521759 -3.92933823 19.57226173 -6.625 25.4375 C-7.03234375 26.33404297 -7.4396875 27.23058594 -7.859375 28.15429688 C-10.72433036 34.44866071 -10.72433036 34.44866071 -12 37 C-13.32 37 -14.64 37 -16 37 C-13.52393903 28.78519843 -9.96582376 21.17389247 -6.3125 13.4375 C-5.6994155 12.12977017 -5.08678178 10.82182892 -4.47460938 9.51367188 C-2.98825841 6.33999516 -1.49584 3.16921737 0 0 Z " fill="#FAFEFE" transform="translate(256,96)"/>
<path d="M0 0 C9.24 0 18.48 0 28 0 C42 27.51724138 42 27.51724138 42 32 C42.66 32 43.32 32 44 32 C44.10884521 31.30688721 44.21769043 30.61377441 44.32983398 29.8996582 C45.09946403 26.56964144 46.31939994 23.72217486 47.72265625 20.60546875 C48.26083984 19.40341797 48.79902344 18.20136719 49.35351562 16.96289062 C49.92306568 15.70437666 50.49272855 14.44591375 51.0625 13.1875 C51.63653896 11.90971681 52.21011161 10.63172403 52.78320312 9.35351562 C54.1842287 6.23358473 55.58997798 3.11587282 57 0 C58.32 0 59.64 0 61 0 C60.33283779 4.48167157 58.67318289 8.38309914 56.83984375 12.48828125 C56.37584923 13.5430793 56.37584923 13.5430793 55.90248108 14.6191864 C54.91883629 16.85239179 53.92828402 19.08245419 52.9375 21.3125 C52.26711901 22.83117763 51.5971921 24.35005578 50.92773438 25.86914062 C49.2904054 29.5817698 47.64687689 33.29159689 46 37 C44.02 37 42.04 37 40 37 C36.46056906 30.10619418 33.22572969 23.12795984 30.1875 16 C29.78080078 15.06027344 29.37410156 14.12054688 28.95507812 13.15234375 C28.57158203 12.25644531 28.18808594 11.36054687 27.79296875 10.4375 C27.4477417 9.63183594 27.10251465 8.82617188 26.74682617 7.99609375 C26 6 26 6 26 4 C18.74 4 11.48 4 4 4 C4 8.29 4 12.58 4 17 C10.6 17 17.2 17 24 17 C24 17.99 24 18.98 24 20 C17.4 20 10.8 20 4 20 C4 24.62 4 29.24 4 34 C10.93 34 17.86 34 25 34 C25 34.99 25 35.98 25 37 C16.75 37 8.5 37 0 37 C0 24.79 0 12.58 0 0 Z " fill="#F9FDFE" transform="translate(182,96)"/>
<path d="M0 0 C0.66 0 1.32 0 2 0 C4.14153208 3.948165 6.27762886 7.89920563 8.40869141 11.85302734 C9.13473428 13.19823699 9.86226808 14.54264304 10.59130859 15.88623047 C11.63770326 17.81529818 12.67873859 19.74717265 13.71875 21.6796875 C14.04685669 22.28183075 14.37496338 22.883974 14.7130127 23.50436401 C17 27.77225659 17 27.77225659 17 30 C16.401875 29.690625 15.80375 29.38125 15.1875 29.0625 C12.91043228 27.89790296 12.91043228 27.89790296 10 27 C9.67 27.99 9.34 28.98 9 30 C7.68 30 6.36 30 5 30 C5 33.63 5 37.26 5 41 C8.3 41 11.6 41 15 41 C15 44.63 15 48.26 15 52 C14.67 52 14.34 52 14 52 C14 48.7 14 45.4 14 42 C10.7 42 7.4 42 4 42 C4 38.04 4 34.08 4 30 C0.7 30 -2.6 30 -6 30 C-7.53630085 26.40223196 -9.05133278 22.79588889 -10.5625 19.1875 C-11.21895508 17.65125977 -11.21895508 17.65125977 -11.88867188 16.08398438 C-12.29794922 15.10107422 -12.70722656 14.11816406 -13.12890625 13.10546875 C-13.51119385 12.19949951 -13.89348145 11.29353027 -14.28735352 10.36010742 C-15 8 -15 8 -14 5 C-9.71 8.3 -5.42 11.6 -1 15 C-0.67 10.05 -0.34 5.1 0 0 Z M4 25 C4 26.32 4 27.64 4 29 C5.32 29 6.64 29 8 29 C8 27.68 8 26.36 8 25 C6.68 25 5.36 25 4 25 Z " fill="#7B8286" transform="translate(26,2)"/>
<path d="M0 0 C18 0 18 0 26 3 C30.43288382 7.43288382 32.09495374 11.62661943 32.3125 17.8125 C32.17284202 23.33309764 31.39389533 28.37063956 27.5703125 32.5703125 C23.59950417 36.02748393 20.48442564 37.13047405 15.33203125 37.09765625 C14.52741455 37.09515869 13.72279785 37.09266113 12.89379883 37.09008789 C11.36855591 37.07643188 11.36855591 37.07643188 9.8125 37.0625 C4.9553125 37.0315625 4.9553125 37.0315625 0 37 C0 24.79 0 12.58 0 0 Z M4 4 C4 13.9 4 23.8 4 34 C16.02048426 34.64653635 16.02048426 34.64653635 24.8125 29.5 C27.41966517 26.20673873 27.19478591 22.64642588 27.25 18.625 C27.27578125 17.50351563 27.3015625 16.38203125 27.328125 15.2265625 C26.95824883 11.58944683 26.25732793 9.85601055 24 7 C17.828093 2.71376061 17.828093 2.71376061 4 4 Z " fill="#F8FDFE" transform="translate(149,96)"/>
<path d="M0 0 C3.83735355 2.28964755 6.087901 5.20927213 7.5 9.4375 C8.90247073 15.71225792 9.22735519 22.4827745 6.5 28.4375 C2.96489562 32.48247521 -0.55494343 35.30448604 -5.984375 35.67578125 C-7.40613555 35.70639969 -8.82803823 35.73088761 -10.25 35.75 C-10.95382813 35.77900391 -11.65765625 35.80800781 -12.3828125 35.83789062 C-17.55213748 35.90034529 -20.37291711 34.78881543 -24.5 31.4375 C-29.27471218 26.00420683 -28.91684473 20.04064235 -28.76953125 13.12109375 C-28.40605717 8.15361464 -27.80553887 6.15623123 -24.5 2.4375 C-17.67792428 -3.0070412 -7.88362204 -3.39760577 0 0 Z M-22.5 6.4375 C-25.21846685 11.93106843 -25.15885447 17.43460373 -24.5 23.4375 C-22.3901567 27.89161364 -20.11810742 30.63041449 -15.5 32.4375 C-9.61408341 33.14735929 -4.42984576 33.04470422 0.5 29.4375 C4.75661859 24.04578312 4.2555692 16.97192817 3.5 10.4375 C2.32809061 7.19822225 0.68328187 5.1855218 -2.2734375 3.31640625 C-9.00509251 0.65917401 -17.27388548 1.34891481 -22.5 6.4375 Z " fill="#F9FEFE" transform="translate(139.5,97.5625)"/>
<path d="M0 0 C3.01125 -0.0825 6.0225 -0.165 9.125 -0.25 C10.06230957 -0.28641602 10.99961914 -0.32283203 11.96533203 -0.36035156 C17.44502659 -0.43271388 20.74756013 0.18840318 25 4 C26.27939225 8.06395185 26.26814029 10.22537248 24.875 14.25 C22.84101569 17.23317699 21.25547649 18.49747239 18 20 C17.34 20 16.68 20 16 20 C16.71027344 20.97582031 17.42054687 21.95164062 18.15234375 22.95703125 C19.08092898 24.24204313 20.00930343 25.52720735 20.9375 26.8125 C21.64036133 27.77639648 21.64036133 27.77639648 22.35742188 28.75976562 C22.80537109 29.38173828 23.25332031 30.00371094 23.71484375 30.64453125 C24.12855225 31.21534424 24.54226074 31.78615723 24.96850586 32.37426758 C26 34 26 34 27 37 C24.69677734 37.20996094 24.69677734 37.20996094 22 37 C20.31494141 35.59472656 20.31494141 35.59472656 18.8515625 33.640625 C18.32175781 32.93679687 17.79195312 32.23296875 17.24609375 31.5078125 C16.71113281 30.76273438 16.17617187 30.01765625 15.625 29.25 C15.06683594 28.52039063 14.50867188 27.79078125 13.93359375 27.0390625 C10.91966556 22.94607359 10.91966556 22.94607359 10 21 C10.35302734 18.75683594 10.35302734 18.75683594 11 17 C12.11375 16.71125 13.2275 16.4225 14.375 16.125 C18.00291092 15.30758671 18.00291092 15.30758671 20 13 C20.16677282 9.41656024 20.16677282 9.41656024 20 6 C15.1925983 3.59629915 9.36117942 4.38294139 4 4 C4 14.89 4 25.78 4 37 C2.68 37 1.36 37 0 37 C0 24.79 0 12.58 0 0 Z " fill="#F6FDFD" transform="translate(85,96)"/>
<path d="M0 0 C1.20785156 0.00644531 2.41570312 0.01289062 3.66015625 0.01953125 C6.28808061 0.15421629 8.44398479 0.4102197 10.9375 1.1875 C11.2675 2.5075 11.5975 3.8275 11.9375 5.1875 C11.37764404 5.18226318 10.81778809 5.17702637 10.2409668 5.17163086 C7.70232263 5.15083309 5.16369641 5.13783096 2.625 5.125 C1.74392578 5.11662109 0.86285156 5.10824219 -0.04492188 5.09960938 C-0.89248047 5.09638672 -1.74003906 5.09316406 -2.61328125 5.08984375 C-3.39356689 5.08460693 -4.17385254 5.07937012 -4.9777832 5.07397461 C-7.2586555 5.10612137 -7.2586555 5.10612137 -10.0625 6.1875 C-11.45681504 8.97613007 -11.31910094 11.10828868 -11.0625 14.1875 C-6.56698543 17.18450971 -2.02993361 16.53337422 3.2734375 16.6484375 C7.4338922 17.26052998 9.12647737 18.0884409 11.9375 21.1875 C12.82442259 24.57543413 12.55421217 27.7539133 11.9375 31.1875 C10.14103146 34.12173195 8.9933929 35.65955355 5.9375 37.1875 C4.5128972 37.28254525 3.08401833 37.3182286 1.65625 37.3203125 C0.39361328 37.32224609 0.39361328 37.32224609 -0.89453125 37.32421875 C-2.21517578 37.31841797 -2.21517578 37.31841797 -3.5625 37.3125 C-4.44292969 37.31636719 -5.32335937 37.32023437 -6.23046875 37.32421875 C-7.07222656 37.32292969 -7.91398437 37.32164062 -8.78125 37.3203125 C-9.55404297 37.31918457 -10.32683594 37.31805664 -11.12304688 37.31689453 C-13.0625 37.1875 -13.0625 37.1875 -15.0625 36.1875 C-15.0625 34.8675 -15.0625 33.5475 -15.0625 32.1875 C-14.32 32.3525 -13.5775 32.5175 -12.8125 32.6875 C-6.37747175 33.54550377 0.65078458 34.08253862 6.9375 32.1875 C6.96439216 30.70843108 6.98384621 29.22922517 7 27.75 C7.01160156 26.92628906 7.02320313 26.10257813 7.03515625 25.25390625 C7.17017348 23.19586062 7.17017348 23.19586062 5.9375 22.1875 C2.47699825 21.93999391 -0.98277118 21.80315966 -4.44921875 21.6640625 C-8.29688484 21.15658654 -10.77314833 20.21986662 -14.0625 18.1875 C-16.52656448 14.49140328 -16.74114807 11.47722609 -16.0625 7.1875 C-12.19859786 0.60455561 -7.23641066 -0.08513424 0 0 Z " fill="#F9FEFE" transform="translate(325.0625,95.8125)"/>
<path d="M0 0 C0.33 0.66 0.66 1.32 1 2 C-0.375 3.5 -0.375 3.5 -2 5 C-2.66 5 -3.32 5 -4 5 C-4.2475 5.721875 -4.495 6.44375 -4.75 7.1875 C-6 10 -6 10 -10 15 C-3.565 14.505 -3.565 14.505 3 14 C3 14.66 3 15.32 3 16 C6.3 15.34 9.6 14.68 13 14 C13.33 13.01 13.66 12.02 14 11 C14.33 11 14.66 11 15 11 C15 13.97 15 16.94 15 20 C12.03 19.01 9.06 18.02 6 17 C5.34 18.32 4.68 19.64 4 21 C2.81736003 22.29410718 1.58293368 23.54196483 0.3125 24.75 C-4.40433286 29.34763492 -8.68033292 34.24657404 -12.921875 39.28125 C-13.54578125 40.0134375 -14.1696875 40.745625 -14.8125 41.5 C-15.37582031 42.1703125 -15.93914063 42.840625 -16.51953125 43.53125 C-18 45 -18 45 -20 45 C-18.3383196 40.87582937 -15.37661982 37.93445961 -12.375 34.75 C-11.6015625 33.91855469 -11.6015625 33.91855469 -10.8125 33.0703125 C-9.54574965 31.7097288 -8.27342185 30.35434163 -7 29 C-12.02261085 31.07301155 -15.47885837 35.08484105 -19.34375 38.78515625 C-21.75374388 40.79466585 -22.95021422 41.64754834 -26 42 C-18.73811588 32.92264485 -9.79725793 25.5405068 -1 18 C-8.92 17.67 -16.84 17.34 -25 17 C-23.73682877 13.21048632 -22.73799812 13.07162044 -19.25 11.3125 C-14.65184124 8.91372335 -10.21379868 6.36151779 -5.8125 3.625 C-4.15154297 2.59246094 -4.15154297 2.59246094 -2.45703125 1.5390625 C-1.64621094 1.03117187 -0.83539063 0.52328125 0 0 Z " fill="#98AAB6" transform="translate(40,75)"/>
<path d="M0 0 C3.01125 -0.061875 6.0225 -0.12375 9.125 -0.1875 C10.06230957 -0.21481201 10.99961914 -0.24212402 11.96533203 -0.27026367 C17.07355978 -0.32085634 20.5809826 0.1402245 25 3 C26.93549813 5.46336125 27.03037929 7.23435451 27.4375 10.375 C27.00191511 13.98413198 26.32050746 15.96607866 23.8359375 18.64453125 C19.83172867 21.60083011 14.02532597 24 9 24 C8.67 22.68 8.34 21.36 8 20 C8.84304687 19.75765625 9.68609375 19.5153125 10.5546875 19.265625 C11.65039062 18.93046875 12.74609375 18.5953125 13.875 18.25 C15.51082031 17.76273438 15.51082031 17.76273438 17.1796875 17.265625 C20.06268867 16.25478387 20.06268867 16.25478387 21.3984375 14.05859375 C22.25928462 11.11270783 21.78155507 8.93083153 21 6 C15.89662421 3.44831211 9.69311026 4.37954068 4 4 C4 14.89 4 25.78 4 37 C2.68 37 1.36 37 0 37 C0 24.79 0 12.58 0 0 Z " fill="#FAFEFE" transform="translate(57,96)"/>
<path d="M0 0 C7.40502265 4.78858131 13.75159902 9.75159902 20 16 C20.66 16.33 21.32 16.66 22 17 C22 17.99 22 18.98 22 20 C21.01 20 20.02 20 19 20 C18.67 21.65 18.34 23.3 18 25 C15.03 25 12.06 25 9 25 C7.49144661 21.3993541 5.99464176 17.79394041 4.5 14.1875 C4.07074219 13.16333984 3.64148438 12.13917969 3.19921875 11.08398438 C2.79316406 10.10107422 2.38710937 9.11816406 1.96875 8.10546875 C1.59169922 7.19949951 1.21464844 6.29353027 0.82617188 5.36010742 C0 3 0 3 0 0 Z " fill="#B6BDC1" transform="translate(11,7)"/>
<path d="M0 0 C3.96 1.65 7.92 3.3 12 5 C12 5.99 12 6.98 12 8 C10.35 8.33 8.7 8.66 7 9 C7.185625 9.721875 7.37125 10.44375 7.5625 11.1875 C8.01995307 14.12826973 7.73516357 16.14103058 7 19 C3.24654344 18.28028381 0.13908031 16.66887798 -3.25 14.9375 C-4.32765625 14.38964844 -5.4053125 13.84179688 -6.515625 13.27734375 C-7.33546875 12.85582031 -8.1553125 12.43429688 -9 12 C-9 10 -9 10 -6.75 7.6875 C-5.38875 6.3571875 -5.38875 6.3571875 -4 5 C-2.68 3.35 -1.36 1.7 0 0 Z " fill="#D7DCDE" transform="translate(62,41)"/>
<path d="M0 0 C1.65 0 3.3 0 5 0 C5.16920005 2.37484362 5.33542863 4.74983478 5.5 7.125 C5.54769531 7.79015625 5.59539063 8.4553125 5.64453125 9.140625 C5.91641462 13.10235414 6.04947806 17.02938555 6 21 C2.7 21 -0.6 21 -4 21 C-4 22.98 -4 24.96 -4 27 C-5.99954746 27.04254356 -8.00041636 27.04080783 -10 27 C-11 26 -11 26 -11.0625 22.9375 C-11.041875 21.968125 -11.02125 20.99875 -11 20 C-9.02 20 -7.04 20 -5 20 C-5 16.7 -5 13.4 -5 10 C-2.36 9.67 0.28 9.34 3 9 C2.01 6.03 1.02 3.06 0 0 Z " fill="#C1C4CC" transform="translate(25,44)"/>
<path d="M0 0 C0.33 0.66 0.66 1.32 1 2 C-0.375 3.5 -0.375 3.5 -2 5 C-2.66 5 -3.32 5 -4 5 C-4.2475 5.721875 -4.495 6.44375 -4.75 7.1875 C-6 10 -6 10 -10 15 C-3.565 14.505 -3.565 14.505 3 14 C3 14.66 3 15.32 3 16 C6.3 15.34 9.6 14.68 13 14 C13.33 13.01 13.66 12.02 14 11 C14.33 11 14.66 11 15 11 C15 13.97 15 16.94 15 20 C14.29875 19.67 13.5975 19.34 12.875 19 C9.73276715 17.90704944 7.30087626 17.92664719 4 18 C3.34 17.67 2.68 17.34 2 17 C0.11527141 16.84655791 -1.77427874 16.75040429 -3.6640625 16.68359375 C-4.78554688 16.64169922 -5.90703125 16.59980469 -7.0625 16.55664062 C-8.238125 16.51732422 -9.41375 16.47800781 -10.625 16.4375 C-11.80835938 16.39431641 -12.99171875 16.35113281 -14.2109375 16.30664062 C-17.14050328 16.20032574 -20.07015588 16.09829358 -23 16 C-18.81135747 11.33363042 -14.06114575 8.36418561 -8.6875 5.1875 C-7.85154297 4.68541016 -7.01558594 4.18332031 -6.15429688 3.66601562 C-4.10667027 2.43743966 -2.05529167 1.21569402 0 0 Z " fill="#C2C6C8" transform="translate(40,75)"/>
<path d="M0 0 C-9.71428571 8 -9.71428571 8 -14 8 C-14 8.66 -14 9.32 -14 10 C-15.32 10.33 -16.64 10.66 -18 11 C-18 11.66 -18 12.32 -18 13 C-18.59167969 13.25394531 -19.18335938 13.50789063 -19.79296875 13.76953125 C-24.03640294 15.61781335 -28.09893529 17.48318405 -32 20 C-30.34643078 16.41726669 -28.32019297 13.19026533 -26 10 C-25.34 10 -24.68 10 -24 10 C-23.67 9.01 -23.34 8.02 -23 7 C-22.34 7 -21.68 7 -21 7 C-21 6.34 -21 5.68 -21 5 C-20.34 5 -19.68 5 -19 5 C-19 4.34 -19 3.68 -19 3 C-16.96040523 2.49161436 -14.91820862 1.99366114 -12.875 1.5 C-11.73804687 1.2215625 -10.60109375 0.943125 -9.4296875 0.65625 C-6.18533302 0.03546235 -3.29185543 -0.12006768 0 0 Z " fill="#F7F9F9" transform="translate(62,70)"/>
<path d="M0 0 C4.95 2.31 9.9 4.62 15 7 C15 5.35 15 3.7 15 2 C15.33 2 15.66 2 16 2 C16.495 10.415 16.495 10.415 17 19 C13.08616041 18.93884626 11.34247364 18.89011992 8 17 C4.64453781 12.7492069 0 5.44924264 0 0 Z " fill="#838181" transform="translate(54,53)"/>
<path d="M0 0 C3.11198065 1.49836105 6.0534615 3.19933758 9 5 C7.625 6.5 7.625 6.5 6 8 C5.34 8 4.68 8 4 8 C3.67 9.98 3.34 11.96 3 14 C3.66 14.33 4.32 14.66 5 15 C1.7 15 -1.6 15 -5 15 C-5 11.37 -5 7.74 -5 4 C-3.68 4 -2.36 4 -1 4 C-0.67 2.68 -0.34 1.36 0 0 Z " fill="#C1C2C5" transform="translate(36,28)"/>
<path d="M0 0 C1.98 0 3.96 0 6 0 C6 1.98 6 3.96 6 6 C8.97 6 11.94 6 15 6 C15 9.3 15 12.6 15 16 C12.03 16 9.06 16 6 16 C6 13.03 6 10.06 6 7 C4.02 7 2.04 7 0 7 C0 4.69 0 2.38 0 0 Z " fill="#9CA1A9" transform="translate(4,37)"/>
<path d="M0 0 C0.33 0 0.66 0 1 0 C1 3.3 1 6.6 1 10 C3.97 10 6.94 10 10 10 C10 8.35 10 6.7 10 5 C10.33 5 10.66 5 11 5 C11 6.98 11 8.96 11 11 C7.7 11 4.4 11 1 11 C1 12.98 1 14.96 1 17 C-0.99954746 17.04254356 -3.00041636 17.04080783 -5 17 C-6 16 -6 16 -6.0625 12.9375 C-6.041875 11.968125 -6.02125 10.99875 -6 10 C-4.02 10 -2.04 10 0 10 C0 6.7 0 3.4 0 0 Z " fill="#7C90A3" transform="translate(20,54)"/>
<path d="M0 0 C2.64 0 5.28 0 8 0 C8 2.31 8 4.62 8 7 C5.36 7 2.72 7 0 7 C0 4.69 0 2.38 0 0 Z " fill="#9EAAB2" transform="translate(4,55)"/>
<path d="M0 0 C2.64 0 5.28 0 8 0 C8 2.31 8 4.62 8 7 C5.36 7 2.72 7 0 7 C0 4.69 0 2.38 0 0 Z " fill="#C2C5C9" transform="translate(10,44)"/>
<path d="M0 0 C0.66 0.33 1.32 0.66 2 1 C3.76571036 1.11766545 5.53535121 1.17888537 7.3046875 1.2109375 C8.89216797 1.25347656 8.89216797 1.25347656 10.51171875 1.296875 C12.7459296 1.34877305 14.98032975 1.39309897 17.21484375 1.4296875 C18.27574219 1.460625 19.33664063 1.4915625 20.4296875 1.5234375 C21.88737549 1.5531665 21.88737549 1.5531665 23.37451172 1.58349609 C26.36096978 2.05726376 27.76590257 3.01156744 30 5 C29.01 5.66 28.02 6.32 27 7 C26.62383545 6.5155542 26.2476709 6.0311084 25.86010742 5.53198242 C23.30002563 3.42350188 21.5280048 3.57177677 18.23828125 3.48828125 C16.56088867 3.43510742 16.56088867 3.43510742 14.84960938 3.38085938 C13.68236328 3.35830078 12.51511719 3.33574219 11.3125 3.3125 C9.54422852 3.26125977 9.54422852 3.26125977 7.74023438 3.20898438 C4.82691775 3.12642075 1.91390534 3.05729678 -1 3 C-0.67 2.01 -0.34 1.02 0 0 Z " fill="#94A1AA" transform="translate(16,89)"/>
<path d="M0 0 C0.33 1.32 0.66 2.64 1 4 C-0.32 4 -1.64 4 -3 4 C-3 4.66 -3 5.32 -3 6 C-1.68 6.33 -0.36 6.66 1 7 C-2.63 7 -6.26 7 -10 7 C-3.18421053 0 -3.18421053 0 0 0 Z " fill="#B1B7C4" transform="translate(27,84)"/>
<path d="M0 0 C1.65 0 3.3 0 5 0 C5.19491452 1.45736087 5.38069358 2.91594593 5.5625 4.375 C5.66691406 5.18710937 5.77132813 5.99921875 5.87890625 6.8359375 C6 9 6 9 5 11 C3.02 11 1.04 11 -1 11 C0.32 10.34 1.64 9.68 3 9 C2.01 6.03 1.02 3.06 0 0 Z " fill="#A5B3B9" transform="translate(25,44)"/>
<path d="M0 0 C0.66 0.66 1.32 1.32 2 2 C1.38511719 2.60328125 0.77023438 3.2065625 0.13671875 3.828125 C-0.67152344 4.62734375 -1.47976562 5.4265625 -2.3125 6.25 C-3.11300781 7.03890625 -3.91351563 7.8278125 -4.73828125 8.640625 C-7.00731326 10.90076404 -7.00731326 10.90076404 -8.66796875 13.296875 C-9.10753906 13.85890625 -9.54710937 14.4209375 -10 15 C-10.66 15 -11.32 15 -12 15 C-10.38462556 11.10082032 -7.72075127 8.28706228 -4.875 5.25 C-4.40707031 4.74339844 -3.93914063 4.23679687 -3.45703125 3.71484375 C-2.30873459 2.47280859 -1.15491328 1.23588506 0 0 Z " fill="#62859F" transform="translate(32,105)"/>
<path d="M0 0 C0.66 0 1.32 0 2 0 C3.4606285 2.64738916 4 3.89448334 4 7 C3.01 7 2.02 7 1 7 C1 10.3 1 13.6 1 17 C0.67 17 0.34 17 0 17 C0 11.39 0 5.78 0 0 Z " fill="#676C75" transform="translate(26,2)"/>
<path d="M0 0 C1.32 0.33 2.64 0.66 4 1 C0.7 3.64 -2.6 6.28 -6 9 C-6.66 8.67 -7.32 8.34 -8 8 C-6.76600937 6.63122884 -5.51219377 5.28030834 -4.25 3.9375 C-3.55390625 3.18339844 -2.8578125 2.42929688 -2.140625 1.65234375 C-1.43421875 1.10707031 -0.7278125 0.56179687 0 0 Z " fill="#708BA6" transform="translate(22,108)"/>
<path d="M0 0 C0.33 0 0.66 0 1 0 C1.33 5.61 1.66 11.22 2 17 C1.01 16.67 0.02 16.34 -1 16 C-1.02725341 14.2709226 -1.04650987 12.54171824 -1.0625 10.8125 C-1.07410156 9.84957031 -1.08570312 8.88664062 -1.09765625 7.89453125 C-1.00486622 5.14423487 -0.62111685 2.67520409 0 0 Z " fill="#878995" transform="translate(69,55)"/>
<path d="M0 0 C1.98 0 3.96 0 6 0 C6 1.32 6 2.64 6 4 C4.02 4 2.04 4 0 4 C0 2.68 0 1.36 0 0 Z " fill="#BEC5D1" transform="translate(15,65)"/>
<path d="M0 0 C0.33 0.66 0.66 1.32 1 2 C-0.375 3.5 -0.375 3.5 -2 5 C-2.66 5 -3.32 5 -4 5 C-4.33 5.66 -4.66 6.32 -5 7 C-5.99 6.34 -6.98 5.68 -8 5 C-4.04 2.525 -4.04 2.525 0 0 Z " fill="#ADB3B7" transform="translate(40,75)"/>
<path d="M0 0 C2.31 1.65 4.62 3.3 7 5 C6.01 5 5.02 5 4 5 C3.01 6.485 3.01 6.485 2 8 C0.74335022 5.09399739 0 3.20395416 0 0 Z " fill="#8B9CA7" transform="translate(11,7)"/>
<path d="M0 0 C0.33 0 0.66 0 1 0 C1 2.97 1 5.94 1 9 C0.01 8.67 -0.98 8.34 -2 8 C-1.125 1.125 -1.125 1.125 0 0 Z " fill="#999FA6" transform="translate(54,86)"/>
<path d="M0 0 C3.465 1.485 3.465 1.485 7 3 C7 3.99 7 4.98 7 6 C5.68 6 4.36 6 3 6 C0 2.78571429 0 2.78571429 0 0 Z " fill="#8C8E8E" transform="translate(54,53)"/>
<path d="M0 0 C0 1.32 0 2.64 0 4 C-2.31 3.67 -4.62 3.34 -7 3 C-4.74624683 0.74624683 -3.20799182 0 0 0 Z " fill="#B3B8BD" transform="translate(53,89)"/>
</svg>
